<svg id="Layer_1" data-name="Layer 1" xmlns="http://www.w3.org/2000/svg" xmlns:xlink="http://www.w3.org/1999/xlink" viewBox="0 0 600 645"><defs><clipPath id="clip-path" transform="translate(-199 -178)"><path d="M204.2832,177.83691H325.81836V707.18848H598.59668v115.2334H204.2832Z" style="fill:none"/></clipPath><linearGradient id="linear-gradient" x1="1" y1="322.5" x2="600" y2="322.5" gradientUnits="userSpaceOnUse"><stop offset="0" stop-color="#fd1721"/><stop offset="1" stop-color="#cd1022"/></linearGradient><clipPath id="clip-path-2" transform="translate(-199 -178)"><path d="M598.30664,608.44531h46.918L731.293,751.8916h2.39062L731.293,710.65039V608.44531h40.04492V822.419H728.90234L638.05273,670.9043h-2.39062l2.39062,41.24023V822.419H598.30664Z" style="fill:none"/></clipPath><linearGradient id="linear-gradient-2" x1="0" x2="599" xlink:href="#linear-gradient"/><clipPath id="clip-path-3" transform="translate(-199 -178)"><path d="M687.36133,484.97314H792.25781a70.93224,70.93224,0,0,1,1.49414,8.666,87.38808,87.38808,0,0,1,.59766,10.16064,118.51693,118.51693,0,0,1-6.27539,38.84961,90.017,90.017,0,0,1-19.72461,32.57422A98.95594,98.95594,0,0,1,733.98242,598.833q-20.02442,8.36279-45.72265,8.36719a115.77473,115.77473,0,0,1-43.93165-8.36719,109.26609,109.26609,0,0,1-35.86132-23.31055,111.85171,111.85171,0,0,1-24.207-35.41308,115.808,115.808,0,0,1,0-89.354,111.95041,111.95041,0,0,1,24.207-35.41308,109.42155,109.42155,0,0,1,35.86132-23.31055,115.77454,115.77454,0,0,1,43.93165-8.36719q25.998,0,46.46875,8.96484a104.14271,104.14271,0,0,1,35.11523,24.80469l-27.793,27.19434a74.28275,74.28275,0,0,0-23.31055-16.88477q-12.85253-5.82714-30.78125-5.82715a74.54665,74.54665,0,0,0-27.791,5.2295,69.68822,69.68822,0,0,0-23.01172,14.793A70.5691,70.5691,0,0,0,621.4668,465.1001a81.84564,81.84564,0,0,0,0,60.66455,69.30988,69.30988,0,0,0,15.83789,23.16113,71.24079,71.24079,0,0,0,23.16211,14.793,75.27121,75.27121,0,0,0,28.09179,5.22949q17.0332,0,28.83789-4.93066a67.59572,67.59572,0,0,0,20.17188-12.70117,48.46439,48.46439,0,0,0,10.31055-13.59766,77.39806,77.39806,0,0,0,6.72461-18.37891H687.36133Z" style="fill:none"/></clipPath><clipPath id="clip-path-4" transform="translate(-199 -178)"><path d="M576.25293,178.3877h39.70019l65.3711,113.12988h2.38769L749.082,178.3877h39.999V392.11035H749.082V286.74121l2.38867-35.81933H749.082l-54.32617,95.81738H670.57812l-54.625-95.81738h-2.38769l2.38769,35.81933V392.11035H576.25293Z" style="fill:none"/></clipPath></defs><title>logoTransparent</title><g style="clip-path:url(#clip-path)"><rect x="1" width="599" height="645" style="fill:url(#linear-gradient)"/></g><g style="clip-path:url(#clip-path-2)"><rect width="599" height="645" style="fill:url(#linear-gradient-2)"/></g><g style="clip-path:url(#clip-path-3)"><rect width="599" height="645" style="fill:url(#linear-gradient-2)"/></g><g style="clip-path:url(#clip-path-4)"><rect width="599" height="645" style="fill:url(#linear-gradient-2)"/></g></svg>